<?xml version="1.0" encoding="UTF-8" standalone="no"?>
<!-- Created with Inkscape (http://www.inkscape.org/) -->

<svg
   xmlns:dc="http://purl.org/dc/elements/1.1/"
   xmlns:cc="http://creativecommons.org/ns#"
   xmlns:rdf="http://www.w3.org/1999/02/22-rdf-syntax-ns#"
   xmlns:svg="http://www.w3.org/2000/svg"
   xmlns="http://www.w3.org/2000/svg"
   xmlns:sodipodi="http://sodipodi.sourceforge.net/DTD/sodipodi-0.dtd"
   xmlns:inkscape="http://www.inkscape.org/namespaces/inkscape"
   width="1607"
   height="2858"
   viewBox="0 0 1607 2858"
   id="svg3810"
   version="1.1"
   inkscape:version="0.91 r13725"
   inkscape:export-filename="/home/matt/Desktop/CoverBackground.png"
   inkscape:export-xdpi="90"
   inkscape:export-ydpi="90"
   sodipodi:docname="CoverBackground.svg">
  <defs
     id="defs3812" />
  <sodipodi:namedview
     id="base"
     pagecolor="#ffffff"
     bordercolor="#666666"
     borderopacity="1.0"
     inkscape:pageopacity="0.0"
     inkscape:pageshadow="2"
     inkscape:zoom="0.35355339"
     inkscape:cx="-655.66824"
     inkscape:cy="1673.6263"
     inkscape:document-units="px"
     inkscape:current-layer="layer1"
     showgrid="false"
     units="px"
     borderlayer="true"
     inkscape:showpageshadow="false"
     inkscape:window-width="3200"
     inkscape:window-height="1671"
     inkscape:window-x="0"
     inkscape:window-y="55"
     inkscape:window-maximized="1" />
  <metadata
     id="metadata3815">
    <rdf:RDF>
      <cc:Work
         rdf:about="">
        <dc:format>image/svg+xml</dc:format>
        <dc:type
           rdf:resource="http://purl.org/dc/dcmitype/StillImage" />
        <dc:title></dc:title>
      </cc:Work>
    </rdf:RDF>
  </metadata>
  <g
     inkscape:label="Layer 1"
     inkscape:groupmode="layer"
     id="layer1"
     transform="translate(0,1805.6378)">
    <g
       transform="matrix(4.0962428,-1.3417919,1.3417919,4.0962428,3577.7846,-653.2823)"
       id="g3795"
       style="opacity:1;fill:#ffffff">
      <path
         id="path3615"
         d="m -391.0396,-359.9152 0.368,1.167 -102.23,0 c -4.608,0 -8.54,1.597 -11.919,4.792 -3.194,3.317 -4.792,7.311 -4.792,11.918 0,4.546 1.598,8.417 4.792,11.611 3.379,3.379 7.311,5.038 11.919,5.038 l 122.135,0 c 1.782,0 3.563,-0.184 5.284,-0.553 2.027,-0.43 3.562,-1.106 4.854,-1.966 1.474,-0.86 2.58,-1.843 3.562,-2.826 0.86,-0.921 1.782,-2.15 2.581,-3.686 0.676,-1.167 1.105,-2.703 1.29,-4.73 0.184,-1.659 0.184,-3.256 0.062,-4.977 -0.799,-5.959 -1.413,-10.076 -1.844,-12.287 -0.921,-4.73 -2.15,-9.154 -3.562,-13.086 -5.714,-16.526 -13.885,-30.042 -24.391,-40.609 -20.335,-19.844 -44.479,-29.489 -72.495,-28.875 -22.485,0.43 -45.401,10.075 -68.932,28.875 -5.345,4.301 -11.365,9.646 -17.939,16.035 -7.372,7.126 -16.157,16.157 -26.294,26.97 l -23.407,25.312 c 1.659,2.15 4.854,6.144 9.522,11.918 4.546,5.713 8.294,10.321 11.059,13.884 l 8.355,10.26 c 11.673,14.745 18.8,23.653 21.441,26.848 5.836,7.311 13.208,14.253 22.116,20.889 7.557,5.591 15.052,10.137 22.67,13.761 9.892,4.731 19.905,7.925 29.797,9.523 l 0.308,0 c 6.328,0.983 12.717,1.352 19.106,1.229 l 0.245,0 c 5.346,-0.184 10.567,-0.798 15.482,-1.781 10.199,-1.659 19.107,-4.854 26.848,-9.584 10.751,-5.836 20.827,-14.499 30.104,-26.233 0.799,-0.983 1.536,-1.843 2.273,-2.765 l 0,0 4.73,-5.959 c 2.826,-3.625 3.994,-7.802 3.44,-12.471 -0.491,-4.485 -2.519,-8.11 -6.144,-10.998 -3.563,-2.826 -7.68,-3.994 -12.287,-3.625 -4.546,0.676 -8.294,2.765 -11.059,6.389 l -7.065,8.54 c -3.133,3.994 -6.45,7.434 -10.014,10.567 -3.072,2.642 -6.513,5.222 -10.383,7.618 -3.133,1.598 -6.635,2.949 -10.444,4.178 -5.099,1.536 -10.812,2.457 -16.956,2.703 -4.239,0.184 -8.479,-0.123 -12.841,-0.922 l 0.246,0 c -6.881,-0.983 -13.823,-3.317 -20.827,-6.881 -10.014,-4.73 -19.045,-10.997 -27.031,-18.799 -3.871,-3.809 -11.243,-12.41 -22.056,-25.803 -9.892,-12.287 -15.175,-19.045 -15.974,-20.458 1.167,-1.29 2.272,-2.58 3.317,-3.809 13.946,-16.158 27.032,-29.367 39.381,-39.626 17.693,-14.745 34.281,-22.302 49.763,-22.67 9.4,-0.308 18.001,1.229 25.988,4.607 7.803,3.318 15.052,8.54 21.81,15.605 8.112,8.602 13.518,17.141 16.038,25.742 z"
         inkscape:connector-curvature="0"
         style="fill:#ffffff" />
      <path
         id="path3617"
         d="m -617.4936,-372.5092 c 0.922,0.983 4.055,4.73 9.338,11.12 2.396,2.949 7.803,9.522 16.158,19.598 l 23.407,-25.312 c -0.308,-0.369 -0.676,-0.799 -1.045,-1.167 -0.307,-0.369 -0.859,-1.044 -1.72,-2.027 -0.983,-1.229 -1.782,-2.273 -2.458,-3.072 -0.676,-0.799 -1.843,-2.15 -3.44,-4.24 -1.843,-2.273 -3.379,-4.177 -4.607,-5.59 -10.383,-12.165 -18.001,-20.643 -22.977,-25.619 -20.09,-20.09 -44.849,-30.165 -74.216,-30.165 -27.216,0 -51.114,10.075 -71.634,30.165 -19.476,19.476 -29.244,43.559 -29.244,72.434 0,28.445 10.015,52.589 29.858,72.433 20.089,20.151 44.418,30.166 72.802,30.166 2.642,0 5.16,-0.123 7.74,-0.307 24.882,-1.782 46.446,-11.734 64.693,-29.858 1.781,-1.781 4.238,-4.484 7.126,-8.048 l 10.506,13.762 c 2.949,3.809 6.819,5.898 11.55,6.513 4.854,0.553 9.093,-0.615 12.84,-3.502 3.81,-3.072 6.021,-6.82 6.574,-11.366 0.799,-4.976 -0.308,-9.338 -3.257,-13.147 l -23.284,-29.858 c -3.686,-4.792 -7.679,-7.434 -11.856,-7.864 -4.73,-0.615 -8.908,0.983 -12.533,4.669 -2.458,3.318 -4.977,6.758 -7.557,10.137 -5.223,6.758 -10.137,12.103 -14.807,16.096 -15.113,12.656 -31.025,19.045 -47.735,19.045 -19.106,0 -35.449,-6.758 -48.903,-20.274 -13.332,-13.332 -19.967,-29.551 -19.967,-48.596 0,-19.721 6.635,-36.37 19.967,-50.132 12.901,-12.717 28.813,-18.984 47.675,-18.799 13.086,0.246 25.25,3.932 36.37,10.997 4.976,3.194 10.26,7.373 15.789,12.595 2.703,2.393 5.651,5.527 8.847,9.213 z"
         inkscape:connector-curvature="0"
         style="fill:#ffffff" />
    </g>
  </g>
</svg>
